<svg xmlns="http://www.w3.org/2000/svg" viewBox="0 0 382.97 497.77"><defs><style>.cls-1{fill:#e30613;}.cls-2,.cls-4{fill:#fff;}.cls-3{fill:none;stroke:#fff;stroke-miterlimit:10;stroke-width:0.44px;}.cls-4{font-size:11.52px;font-family:SourceSansPro-Semibold, Source Sans Pro;font-weight:600;}</style></defs><title>Founder-Level1</title><g id="Layer_2" data-name="Layer 2"><g id="Layer_1-2" data-name="Layer 1"><path class="cls-1" d="M366.84,196.17C350.72,110.18,383,51.06,383,51.06L192.17,0l-.69.18L190.8,0,0,51.06s32.25,59.12,16.12,145.11c0,0-34.11,117.4,34.58,196.21h0l.08.07c1.43,1.65,3,3.23,4.52,4.85l0,.09.87.79c.94,1,1.8,2,2.78,3,2.3,2.26,4.71,4.38,7.21,6.41A465.78,465.78,0,0,0,112.36,446l0,0,1,.64c6.33,4.51,12.86,8.82,19.54,12.82L159.65,477c6.18,4.14,12.59,8.36,19.36,12.71l.56.37v0c3.83,2.46,7.72,4.93,11.74,7.45v.22l.17-.11.18.11v-.22c4-2.52,7.9-5,11.73-7.45v0l.56-.37c6.77-4.35,13.19-8.57,19.36-12.71l26.82-17.6c6.67-4,13.2-8.31,19.53-12.82l1-.64,0,0a468.12,468.12,0,0,0,46.26-38.38c2.49-2,4.91-4.15,7.2-6.41,1-1,1.84-2,2.78-3l.88-.79-.06-.09c1.52-1.62,3.09-3.2,4.53-4.85l.07-.07h0C401,313.57,366.84,196.17,366.84,196.17Z"/><path class="cls-2" d="M190.81,476.12l-2-1.3c-6.79-4.35-13.11-8.52-19.2-12.6l-27.69-18.15c-5.86-3.5-12-7.56-18.24-12l-.87-.61a449.35,449.35,0,0,1-44.46-36.89l-1-.84c-2-1.66-4-3.37-5.87-5.2l-4.73-5.07c-.75-.77-1.55-1.6-2.3-2.45C2.54,310,32.93,202.23,33.24,201.15l.41-1.69c10.8-57.6,1.57-104-8.07-132.88L24.38,63,191.65,18.32l.82.22L358.58,63l-1.2,3.59c-9.64,28.83-18.86,75.28-8.06,132.88l.4,1.69c.32,1.1,30.14,109.5-30.89,179.51-1.06,1.19-1.79,1.95-2.51,2.71l-5.22,5.53c-1.81,1.75-3.62,3.32-5.47,4.83l-1,.86a448.53,448.53,0,0,1-44.44,36.87l-.89.64c-6.2,4.41-12.38,8.47-18.36,12l-27.43,18c-6.22,4.15-12.54,8.33-19.21,12.6l-2,1.3-.79-.42Zm.48-9.14.91.64c6-3.87,11.73-7.64,17.39-11.43l27.59-18.08c5.93-3.57,12-7.52,18-11.83l.88-.62a441.91,441.91,0,0,0,43.69-36.26l1.36-1.2c1.71-1.39,3.36-2.81,4.91-4.3l5-5.3c.83-.87,1.51-1.58,2.16-2.29,58.75-67.41,30-172.14,29.7-173.19l-.56-2.35C331.67,144,340,97.75,349.45,67.93L191.54,25.67l-158,42.26C43,97.75,51.3,144,40.66,200.77l-.57,2.37c-.3,1-29.49,105.25,29.43,172.84,1,1.08,1.68,1.84,2.41,2.6l4.67,5c1.6,1.56,3.41,3.12,5.26,4.63l1.35,1.19a440,440,0,0,0,43.7,36.27l.86.6c6.06,4.32,12.08,8.27,17.9,11.76l27.84,18.25q8.27,5.54,17.06,11.23Z"/><g id="coin"><g id="fractal"><path class="cls-3" d="M282.13,363.62a22.15,22.15,0,0,1-5.77-.77l-82.55-22.24-82.55,22.24A22.14,22.14,0,0,1,89.87,325.8l60.54-60.37,22-82.62a22.14,22.14,0,0,1,42.79,0l22,82.62,60.54,60.37a22.14,22.14,0,0,1-15.63,37.82Zm-88.32-24,.13,0,82.68,22.28a21.14,21.14,0,0,0,23.82-9.85,21.16,21.16,0,0,0-3.38-25.55l-60.73-60.56,0-.13-22.05-82.74a21.15,21.15,0,0,0-40.87,0l-22.09,82.87-.09.09L90.57,326.5A21.15,21.15,0,0,0,111,361.9Z"/><path class="cls-3" d="M108.29,368.17a22.14,22.14,0,0,1-16.43-37l57.29-63.46,17.66-83.65a22.18,22.18,0,0,1,20.51-17.54l1.17,0a22.06,22.06,0,0,1,21,15.33l26.31,81.35,63.61,57.12A22.14,22.14,0,0,1,280,358.43l-83.6-17.89-81.28,26.53A22,22,0,0,1,108.29,368.17Zm80.2-200.67c-.37,0-.75,0-1.12,0a21.18,21.18,0,0,0-19.59,16.75L150.07,268.2l-.09.1L92.59,331.85a21.15,21.15,0,0,0,22.27,34.28l81.52-26.61.13,0,83.74,17.92a21.3,21.3,0,0,0,4.43.47A21.16,21.16,0,0,0,298.8,321L235,263.75l0-.13L208.6,182.15A21.08,21.08,0,0,0,188.49,167.5Z"/><path class="cls-3" d="M111.32,372.57a22.14,22.14,0,0,1-17.19-36.1L148,270.1l13.26-84.46a22.18,22.18,0,0,1,19.56-18.59,22.58,22.58,0,0,1,2.33-.12,22.24,22.24,0,0,1,20.66,14.24L234.36,261l66.52,53.71A22.14,22.14,0,0,1,287,354.11a22.74,22.74,0,0,1-3.5-.28l-84.43-13.49-79.77,30.74A21.91,21.91,0,0,1,111.32,372.57Zm71.85-204.65a20.83,20.83,0,0,0-2.23.12,21.17,21.17,0,0,0-18.68,17.75L149,270.52l-.08.1-54,66.47a21.14,21.14,0,0,0,24,33.07l80-30.84.13,0,84.55,13.51a21.15,21.15,0,0,0,16.63-37.34l-66.73-53.88,0-.13-30.58-80A21.26,21.26,0,0,0,183.17,167.92Z"/><path class="cls-3" d="M114.57,376.8a22.14,22.14,0,0,1-17.9-35.18L147,272.53l8.82-85A22.16,22.16,0,0,1,174.4,167.9a22.44,22.44,0,0,1,3.47-.27,22.16,22.16,0,0,1,20.23,13.16l34.67,78.15L302,309.1a22.14,22.14,0,0,1-13,40.07,23.12,23.12,0,0,1-2.35-.12l-85-9.06L123.6,374.87A22,22,0,0,1,114.57,376.8Zm63.3-208.18a21.84,21.84,0,0,0-3.32.26,21.18,21.18,0,0,0-17.73,18.71L148,272.89l-.08.11L97.47,342.21A21.15,21.15,0,0,0,123.2,374l78.29-35,.14,0,85.14,9.06a21.15,21.15,0,0,0,14.65-38.16L232,259.59l-.05-.12L197.2,181.19A21.16,21.16,0,0,0,177.87,168.62Z"/><path class="cls-3" d="M118,380.86a22.14,22.14,0,0,1-18.56-34.22L146.14,275l4.36-85.39A22.16,22.16,0,0,1,168,169.09a21.68,21.68,0,0,1,4.61-.49,22,22,0,0,1,19.73,12.12L231.06,257l71.77,46.46a22.14,22.14,0,0,1-12,40.73c-.39,0-.8,0-1.19,0l-85.38-4.6-76.12,38.92A22.22,22.22,0,0,1,118,380.86Zm54.58-211.27a21.79,21.79,0,0,0-4.41.46,21.18,21.18,0,0,0-16.72,19.61l-4.37,85.66-46.81,71.86a21.15,21.15,0,0,0,27.35,30.37l76.36-39h.13l85.51,4.6,1.14,0a21.15,21.15,0,0,0,11.49-38.91l-72-46.61-.06-.11-38.77-76.35A21,21,0,0,0,172.62,169.59Z"/><path class="cls-3" d="M121.71,384.73a22.13,22.13,0,0,1-19.16-33.23l42.85-74L145.28,192A22.14,22.14,0,0,1,186.61,181l42.65,74.1,74.1,42.64A22.14,22.14,0,0,1,292.31,339l-85.52-.12-74,42.85A22.13,22.13,0,0,1,121.71,384.73Zm45.71-213.89A21.15,21.15,0,0,0,146.27,192l.12,85.76-.07.12L103.4,352a21.16,21.16,0,0,0,28.91,28.91l74.21-43h.13l85.63.12a21.15,21.15,0,0,0,10.58-39.48l-74.33-42.78-.07-.12-42.71-74.21A21.19,21.19,0,0,0,167.42,170.84Z"/><path class="cls-3" d="M125.58,388.41a22.14,22.14,0,0,1-19.71-32.22l38.92-76.12-4.6-85.38a22.14,22.14,0,0,1,40.7-13.22l46.46,71.77L303.58,292a22.14,22.14,0,0,1-8.89,41.85l-85.39,4.36-71.64,46.66A22,22,0,0,1,125.58,388.41ZM162.3,172.35a21.17,21.17,0,0,0-21.12,22.29l4.61,85.64-.06.12-39,76.24A21.15,21.15,0,0,0,137.12,384L209,337.18h.13l85.52-4.37a21.15,21.15,0,0,0,8.49-40L226.67,254l-46.61-72A21.09,21.09,0,0,0,162.3,172.35Z"/><path class="cls-3" d="M129.64,391.88a22.15,22.15,0,0,1-20.21-31.18l34.88-78.05-9.06-85a22.16,22.16,0,0,1,14.09-23,21.93,21.93,0,0,1,7.92-1.47,22.21,22.21,0,0,1,17.94,9.15l50.16,69.23,78.15,34.67a22.14,22.14,0,0,1-6.7,42.26l-85,8.82-69.1,50.35A22,22,0,0,1,129.64,391.88Zm27.62-217.75a21.16,21.16,0,0,0-21,23.4l9.08,85.28,0,.12-34.94,78.18a21.15,21.15,0,0,0,31.77,25.72l69.31-50.51h.13l85.17-8.83a21.16,21.16,0,0,0,6.4-40.38l-78.4-34.77L174.4,182.88A21.21,21.21,0,0,0,157.26,174.13Z"/><path class="cls-3" d="M133.87,395.13A22.14,22.14,0,0,1,113.22,365L144,285.25l-13.5-84.43a22.14,22.14,0,0,1,39.09-17.4l53.71,66.52,79.86,30.53A22.14,22.14,0,0,1,298.66,323L214.2,336.28l-66.37,53.89A22.17,22.17,0,0,1,133.87,395.13Zm18.46-218.95a20.93,20.93,0,0,0-8.6,1.83,21.18,21.18,0,0,0-12.28,22.66L145,285.36l0,.12-30.8,79.9a21.15,21.15,0,0,0,33.07,24l66.57-54.06.14,0L298.51,322a21.15,21.15,0,0,0,4.27-40.65l-80.11-30.62L168.79,184A21,21,0,0,0,152.33,176.18Z"/><path class="cls-3" d="M138.27,398.15a22.14,22.14,0,0,1-21-29l26.53-81.28-17.89-83.6A22.14,22.14,0,0,1,164,184.84l57.12,63.61,81.35,26.31a22.14,22.14,0,0,1-2.24,42.73l-83.65,17.66-63.46,57.29A22.09,22.09,0,0,1,138.27,398.15Zm9.24-219.67a21.14,21.14,0,0,0-20.67,25.57l17.94,83.87-26.61,81.53a21.15,21.15,0,0,0,34.28,22.26l63.65-57.48.13,0L300,316.52a21.15,21.15,0,0,0,2.14-40.82l-81.61-26.39-.08-.1L163.26,185.5A21.21,21.21,0,0,0,147.51,178.48Z"/><path class="cls-3" d="M142.82,400.94A22.15,22.15,0,0,1,121.45,373l22.24-82.55-22.24-82.55a22.14,22.14,0,0,1,37.05-21.4l60.37,60.54,82.62,22a22.14,22.14,0,0,1,0,42.79l-82.62,22L158.5,394.43A22,22,0,0,1,142.82,400.94Zm0-219.92a21.17,21.17,0,0,0-20.42,26.66l22.32,82.81,0,.13L122.4,373.3a21.15,21.15,0,0,0,35.4,20.43L218.36,333l.13,0,82.74-22a21.15,21.15,0,0,0,0-40.88L218.36,248l-.09-.1L157.8,187.24A21,21,0,0,0,142.82,181Z"/><path class="cls-3" d="M147.51,403.49a22.16,22.16,0,0,1-21.64-26.78l17.89-83.6-26.53-81.27a22.14,22.14,0,0,1,35.88-23.31l63.46,57.3,83.65,17.66a22.14,22.14,0,0,1,2.24,42.73l-81.35,26.3L164,396.14A22.17,22.17,0,0,1,147.51,403.49Zm-9.24-219.68a21.17,21.17,0,0,0-20.1,27.72l26.61,81.53-17.94,83.86a21.15,21.15,0,0,0,36.42,18.56l57.29-63.82.13,0,81.48-26.34A21.15,21.15,0,0,0,300,264.46L216.1,246.74l-.09-.09-63.56-57.38A21.1,21.1,0,0,0,138.27,183.81Z"/><path class="cls-3" d="M152.33,405.79a22.16,22.16,0,0,1-21.86-25.64L144,295.73,113.22,216a22.14,22.14,0,0,1,34.61-25.15l66.37,53.9L298.66,258a22.14,22.14,0,0,1,4.47,42.55L223.27,331l-53.71,66.51A22,22,0,0,1,152.33,405.79ZM133.87,186.84a21.15,21.15,0,0,0-19.73,28.76l30.84,80,0,.13-13.51,84.56a21.15,21.15,0,0,0,37.34,16.62l53.88-66.72,80.11-30.62a21.16,21.16,0,0,0-4.27-40.66l-84.73-13.3-.1-.08-66.47-54A21.22,21.22,0,0,0,133.87,186.84Z"/><path class="cls-3" d="M157.26,407.83a22.15,22.15,0,0,1-22-24.49l9.06-85-34.88-78.06a22.14,22.14,0,0,1,33.25-26.92l69.1,50.34,85,8.82a22.14,22.14,0,0,1,6.7,42.26l-78.15,34.67L175.2,398.68A22.21,22.21,0,0,1,157.26,407.83ZM129.64,190.09a21.15,21.15,0,0,0-19.31,29.78l35,78.3v.13l-9.07,85.15a21.17,21.17,0,0,0,13.45,22,20.91,20.91,0,0,0,7.57,1.41,21.23,21.23,0,0,0,17.14-8.74l50.31-69.46.12-.05,78.28-34.72a21.15,21.15,0,0,0-6.4-40.37l-85.3-8.85-.11-.08-69.2-50.43A21.06,21.06,0,0,0,129.64,190.09Z"/><path class="cls-3" d="M162.3,409.61a22.13,22.13,0,0,1-22.11-23.33l4.6-85.37-38.92-76.12a22.14,22.14,0,0,1,31.79-28.64l71.64,46.67,85.39,4.35A22.15,22.15,0,0,1,303.58,289l-76.23,38.71L180.89,399.5A22.07,22.07,0,0,1,162.3,409.61Zm-36.72-216a21.15,21.15,0,0,0-18.83,30.78l39,76.36v.13l-4.6,85.5A21.15,21.15,0,0,0,180.06,399l46.61-72,.12-.06,76.34-38.76a21.15,21.15,0,0,0-8.49-40L209,243.79l-.12-.07L137.12,197A21.09,21.09,0,0,0,125.58,193.56Z"/><path class="cls-3" d="M167.42,411.13A22.16,22.16,0,0,1,145.28,389l.12-85.5-42.85-74a22.14,22.14,0,0,1,30.25-30.26l74,42.85,85.49-.12a22.14,22.14,0,0,1,11.08,41.33l-74.1,42.65L186.61,400A22.19,22.19,0,0,1,167.42,411.13Zm-45.71-213.9A21.16,21.16,0,0,0,103.4,229l43,74.21L146.27,389a21.15,21.15,0,0,0,39.48,10.58l42.78-74.33.12-.07,74.21-42.71a21.16,21.16,0,0,0-10.55-39.49l-85.79.12-.11-.06-74.1-42.92A21.11,21.11,0,0,0,121.71,197.23Z"/><path class="cls-3" d="M279.33,368.17a22,22,0,0,1-6.87-1.1l-81.27-26.53-83.6,17.89a22.14,22.14,0,0,1-19.43-38.12l63.62-57.12,26.3-81.35a22.08,22.08,0,0,1,21.06-15.33l1.17,0a22.18,22.18,0,0,1,20.5,17.54l17.66,83.65,57.3,63.46a22.15,22.15,0,0,1-16.44,37Zm-88.09-28.65.13,0,81.4,26.57A21.15,21.15,0,0,0,295,331.85L237.56,268.2l0-.13-17.68-83.79a21.19,21.19,0,0,0-19.59-16.75c-.37,0-.75,0-1.12,0A21.08,21.08,0,0,0,179,182.15l-26.39,81.6-.1.09L88.82,321a21.15,21.15,0,0,0,18.56,36.43Z"/><path class="cls-3" d="M276.31,372.57a21.91,21.91,0,0,1-8-1.49l-79.78-30.74-84.42,13.49a22.94,22.94,0,0,1-3.5.28,22.14,22.14,0,0,1-13.9-39.37L153.26,261l30.53-79.86a22.26,22.26,0,0,1,20.67-14.24,22.73,22.73,0,0,1,2.33.12,22.16,22.16,0,0,1,19.55,18.59L239.6,270.1l53.9,66.37a22.15,22.15,0,0,1-17.19,36.1Zm-87.63-33.25,80,30.84a21.15,21.15,0,0,0,24-33.07l-54.06-66.57,0-.13-13.28-84.6A21.18,21.18,0,0,0,206.68,168a20.5,20.5,0,0,0-2.22-.12,21.26,21.26,0,0,0-19.74,13.6l-30.63,80.11L87.37,315.51a21.15,21.15,0,0,0,13.28,37.61,20.8,20.8,0,0,0,3.34-.27Z"/><path class="cls-3" d="M273.05,376.8a22,22,0,0,1-9-1.93L186,340l-85,9.06a23.31,23.31,0,0,1-2.36.12,22.14,22.14,0,0,1-13-40.07l69.24-50.16,34.67-78.15a22.14,22.14,0,0,1,20.23-13.16,22.53,22.53,0,0,1,3.47.27,22.18,22.18,0,0,1,18.56,19.59l8.82,85L291,341.62a22.14,22.14,0,0,1-17.91,35.18ZM186.13,339l.12.06L264.43,374a21.15,21.15,0,0,0,25.73-31.76l-50.51-69.32v-.13l-8.84-85.17a21.16,21.16,0,0,0-17.73-18.71,21.61,21.61,0,0,0-3.31-.26,21.16,21.16,0,0,0-19.33,12.57l-34.77,78.4L86.2,309.9a21.15,21.15,0,0,0,14.65,38.16Z"/><path class="cls-3" d="M269.59,380.86a22.19,22.19,0,0,1-10.07-2.43l-76.13-38.92L98,344.11l-1.2,0a22.14,22.14,0,0,1-12-40.73L156.57,257l38.7-76.23A22,22,0,0,1,215,168.6a21.75,21.75,0,0,1,4.61.49,22.16,22.16,0,0,1,17.51,20.52L241.48,275l46.67,71.64a22.14,22.14,0,0,1-18.56,34.22Zm-86-42.35.11.06,76.25,39a21.15,21.15,0,0,0,27.35-30.37l-46.81-71.86-4.37-85.66a21.19,21.19,0,0,0-16.73-19.61,21.77,21.77,0,0,0-4.4-.46,21,21,0,0,0-18.85,11.58l-38.83,76.46-72,46.61a21.15,21.15,0,0,0,11.48,38.91c.38,0,.77,0,1.15,0Z"/><path class="cls-3" d="M265.91,384.73a22.19,22.19,0,0,1-11.09-3l-74-42.85L95.35,339a22.14,22.14,0,0,1-11.08-41.33l74.1-42.64L201,181A22.14,22.14,0,0,1,242.35,192l-.12,85.49,42.85,74a22.14,22.14,0,0,1-19.17,33.23Zm-84.8-46.82.11.07,74.1,42.92A21.15,21.15,0,0,0,284.22,352l-43-74.21v-.13l.12-85.63a21.16,21.16,0,0,0-39.49-10.58L159.1,255.77l-.12.07L84.76,298.55A21.15,21.15,0,0,0,95.31,338Z"/><path class="cls-3" d="M262,388.41A22.07,22.07,0,0,1,250,384.82l-71.64-46.66L92.94,333.8A22.14,22.14,0,0,1,84,292l76.23-38.71,46.47-71.77a22.14,22.14,0,0,1,40.69,13.22l-4.59,85.38,38.92,76.12A22.14,22.14,0,0,1,262,388.41ZM225.33,172.35A21.07,21.07,0,0,0,207.57,182L161,254l-.12.06L84.49,292.83a21.15,21.15,0,0,0,8.5,40l85.65,4.37L250.5,384a21.15,21.15,0,0,0,30.38-27.35l-39-76.36v-.13l4.6-85.51a21.17,21.17,0,0,0-21.12-22.29Z"/><path class="cls-3" d="M258,391.88a22,22,0,0,1-13-4.25l-69.1-50.35-85-8.82a22.14,22.14,0,0,1-6.69-42.26l78.15-34.67,50.16-69.23a22.19,22.19,0,0,1,17.93-9.15,22.14,22.14,0,0,1,22,24.48l-9.05,85L278.2,360.7A22.15,22.15,0,0,1,258,391.88ZM230.36,174.13a21.2,21.2,0,0,0-17.13,8.75l-50.32,69.45-.12,0L84.52,287.1a21.15,21.15,0,0,0,6.39,40.38l85.31,8.84.11.08,69.2,50.43a21.15,21.15,0,0,0,31.77-25.72l-35-78.3v-.14l9.07-85.14a21.16,21.16,0,0,0-21-23.4Z"/><path class="cls-3" d="M253.75,395.13a22.22,22.22,0,0,1-14-5l-66.36-53.89L89,323a22.14,22.14,0,0,1-4.48-42.55l79.86-30.53,53.71-66.52a22.14,22.14,0,0,1,39.09,17.4l-13.49,84.43L274.41,365a22.14,22.14,0,0,1-20.66,30.11ZM235.3,176.18A21.07,21.07,0,0,0,218.83,184L165,250.77l-.12,0-80,30.58A21.15,21.15,0,0,0,89.12,322l84.72,13.3,66.58,54.06a21.15,21.15,0,0,0,33.07-24l-30.85-80,0-.14,13.52-84.55A21.18,21.18,0,0,0,243.89,178,20.88,20.88,0,0,0,235.3,176.18Z"/><path class="cls-3" d="M249.36,398.15a22.13,22.13,0,0,1-14.85-5.71l-63.45-57.29L87.41,317.49a22.14,22.14,0,0,1-2.24-42.73l81.34-26.31,57.12-63.61a22.14,22.14,0,0,1,38.13,19.42l-17.89,83.6,26.53,81.28a22.14,22.14,0,0,1-21,29Zm-9.24-219.67a21.21,21.21,0,0,0-15.75,7l-57.3,63.81-.12,0L85.47,275.7a21.15,21.15,0,0,0,2.14,40.82l83.91,17.71.1.09,63.56,57.39a21.15,21.15,0,0,0,34.28-22.26l-26.62-81.53,0-.13,17.92-83.74a21.14,21.14,0,0,0-20.67-25.57Z"/><path class="cls-3" d="M244.81,400.94a22,22,0,0,1-15.69-6.51l-60.37-60.54-82.61-22a22.14,22.14,0,0,1,0-42.79l82.61-22,60.37-60.54a22.14,22.14,0,0,1,37.06,21.4l-22.24,82.55L266.18,373a22.15,22.15,0,0,1-21.37,27.9Zm0-219.92a21,21,0,0,0-15,6.22L169.26,248l-.12,0L86.39,270.05a21.16,21.16,0,0,0,0,40.88L169.26,333l.1.09,60.46,60.63a21,21,0,0,0,15,6.22,21.14,21.14,0,0,0,20.41-26.65l-22.31-82.81,0-.13,22.27-82.68A21.16,21.16,0,0,0,244.81,181Z"/><path class="cls-3" d="M240.12,403.49a22.21,22.21,0,0,1-16.49-7.35l-57.12-63.62-81.34-26.3a22.14,22.14,0,0,1,2.24-42.73l83.65-17.66,63.45-57.3a22.15,22.15,0,0,1,35.89,23.31l-26.53,81.27,17.89,83.6a22.16,22.16,0,0,1-21.64,26.78Zm9.24-219.68a21.1,21.1,0,0,0-14.18,5.46l-63.66,57.47L87.61,264.46a21.15,21.15,0,0,0-2.14,40.82l81.6,26.38,57.3,63.82a21.15,21.15,0,0,0,36.42-18.56l-18-83.86,0-.13,26.57-81.4a21.17,21.17,0,0,0-20.1-27.72Z"/><path class="cls-3" d="M235.3,405.79a22.05,22.05,0,0,1-17.24-8.24L164.35,331,84.49,300.51A22.14,22.14,0,0,1,89,258l84.46-13.26,66.36-53.9a22.26,22.26,0,0,1,14-5A22.14,22.14,0,0,1,274.41,216l-30.75,79.78,13.49,84.42a22.15,22.15,0,0,1-21.85,25.64Zm18.45-218.95a21.22,21.22,0,0,0-13.33,4.73l-66.58,54.06-.13,0L89.12,258.93a21.15,21.15,0,0,0-4.27,40.66L165,330.21l53.88,66.72a21.15,21.15,0,0,0,37.35-16.62l-13.54-84.69.05-.12,30.8-79.9a21.17,21.17,0,0,0-7.31-24.72A20.94,20.94,0,0,0,253.75,186.84Z"/><path class="cls-3" d="M230.36,407.83a22.19,22.19,0,0,1-17.93-9.15l-50.16-69.24L84.12,294.77a22.14,22.14,0,0,1,6.69-42.26l85-8.82L245,193.35a22,22,0,0,1,13-4.25,22.13,22.13,0,0,1,20.21,31.17l-34.88,78.06,9.05,85a22.14,22.14,0,0,1-22,24.49ZM258,190.09a21,21,0,0,0-12.46,4l-69.31,50.51h-.13L90.91,253.5a21.15,21.15,0,0,0-6.39,40.37l78.39,34.77.08.11,50.24,69.35a21.21,21.21,0,0,0,17.13,8.74,20.92,20.92,0,0,0,7.58-1.41,21.18,21.18,0,0,0,13.45-22l-9.08-85.28,35-78.3A21.15,21.15,0,0,0,258,190.09Z"/><path class="cls-3" d="M225.33,409.61a22.07,22.07,0,0,1-18.59-10.11l-46.47-71.76L84,289a22.15,22.15,0,0,1,8.9-41.86l85.38-4.35L250,196.15a22.14,22.14,0,0,1,31.8,28.64l-38.92,76.12,4.59,85.37a22.12,22.12,0,0,1-22.1,23.33Zm36.71-216A21.14,21.14,0,0,0,250.5,197l-71.86,46.81L93,248.16a21.16,21.16,0,0,0-8.5,40L161,327l.07.12L207.57,399a21.07,21.07,0,0,0,17.76,9.66,21.14,21.14,0,0,0,21.12-22.29l-4.61-85.63.06-.12,39-76.24A21.15,21.15,0,0,0,262,193.56Z"/><path class="cls-3" d="M220.2,411.13A22.18,22.18,0,0,1,201,400l-42.65-74.1-74.1-42.65a22.14,22.14,0,0,1,11-41.33l85.53.12,74-42.85a22.19,22.19,0,0,1,11.09-3,22.15,22.15,0,0,1,19.17,33.24l-42.85,74,.12,85.5a22.16,22.16,0,0,1-22.15,22.17ZM95.34,242.94a21.16,21.16,0,0,0-10.58,39.49l74.34,42.78.06.11,42.71,74.22A21.16,21.16,0,0,0,241.36,389l-.12-85.77.07-.11L284.22,229a21.15,21.15,0,0,0-28.9-28.9l-74.21,43Z"/></g><circle class="cls-1" cx="190.88" cy="290.58" r="88.75"/><circle class="cls-1" cx="190.7" cy="289.93" r="61.57"/><text id="peer-to-peer_·petrmission-less_·unstoppablE·" data-name="peer-to-peer ·petrmission-less ·unstoppablE·" class="cls-4" transform="matrix(0.99, -0.15, 0.15, 0.99, 178.91, 218.6)">P</text><text class="cls-4" transform="matrix(1, -0.02, 0.02, 1, 189.69, 217.35)">E</text><text class="cls-4" transform="translate(200.11 217.59) rotate(8.17)">E</text><text class="cls-4" transform="translate(210.37 219.36) rotate(16.81)">R</text><text class="cls-4" transform="translate(220.87 222.94) rotate(24.53)">-</text><text class="cls-4" transform="translate(227.61 226.18) rotate(31.56)">T</text><text class="cls-4" transform="translate(236.34 231.85) rotate(40.47)">O</text><text class="cls-4" transform="matrix(0.66, 0.75, -0.75, 0.66, 245.42, 240.24)">-</text><text class="cls-4" transform="translate(250.69 246.54) rotate(56.47)">P</text><text class="cls-4" transform="translate(256.4 255.75) rotate(64.97)">E</text><text class="cls-4" transform="translate(260.53 265.32) rotate(73.39)">E</text><text class="cls-4" transform="matrix(0.14, 0.99, -0.99, 0.14, 263.22, 275.38)">R</text><text class="cls-4" transform="matrix(0.02, 1, -1, 0.02, 264.36, 286.47)"> </text><text class="cls-4" transform="translate(264.27 293.15) rotate(94.74)">·</text><text class="cls-4" transform="translate(263.49 300.61) rotate(102.17)">P</text><text class="cls-4" transform="matrix(-0.35, 0.94, -0.94, -0.35, 260.88, 311.13)">E</text><text class="cls-4" transform="matrix(-0.49, 0.87, -0.87, -0.49, 256.91, 320.78)">R</text><text class="cls-4" transform="translate(251.23 330.3) rotate(128.95)">M</text><text class="cls-4" transform="translate(242.76 339.99) rotate(137.09)">I</text><text class="cls-4" transform="translate(237.2 344.93) rotate(144.24)">S</text><text class="cls-4" transform="translate(228.4 350.87) rotate(152.75)">S</text><text class="cls-4" transform="translate(218.8 355.4) rotate(160.09)">I</text><text class="cls-4" transform="matrix(-0.98, 0.21, -0.21, -0.98, 211.65, 357.83)">O</text><text class="cls-4" transform="translate(199.79 359.98) rotate(177.57)">N</text><text class="cls-4" transform="translate(187.76 360.04) rotate(-174.43)">-</text><text class="cls-4" transform="translate(179.62 359.02) rotate(-167)">L</text><text class="cls-4" transform="translate(169.96 356.5) rotate(-158.77)">E</text><text class="cls-4" transform="matrix(-0.87, -0.5, 0.5, -0.87, 160.24, 352.37)">S</text><text class="cls-4" transform="matrix(-0.79, -0.62, 0.62, -0.79, 151.21, 346.84)">S</text><text class="cls-4" transform="translate(143.11 339.98) rotate(-134.87)"> </text><text class="cls-4" transform="matrix(-0.63, -0.77, 0.77, -0.63, 138.55, 335.12)">·</text><text class="cls-4" transform="matrix(-0.52, -0.85, 0.85, -0.52, 133.9, 329.18)">U</text><text class="cls-4" transform="translate(128.06 318.96) rotate(-111.96)">N</text><text class="cls-4" transform="translate(124.02 307.95) rotate(-103)">S</text><text class="cls-4" transform="translate(121.95 297.5) rotate(-94.44)">T</text><text class="cls-4" transform="matrix(0.08, -1, 1, 0.08, 121.4, 287.1)">O</text><text class="cls-4" transform="translate(122.7 275.12) rotate(-76.37)">P</text><text class="cls-4" transform="translate(125.56 264.67) rotate(-67.62)">P</text><text class="cls-4" transform="matrix(0.51, -0.86, 0.86, 0.51, 129.88, 254.97)">A</text><text class="cls-4" transform="matrix(0.64, -0.77, 0.77, 0.64, 135.68, 245.87)">B</text><text class="cls-4" transform="translate(143.12 237.45) rotate(-41.86)">L</text><text class="cls-4" transform="matrix(0.83, -0.56, 0.56, 0.83, 150.74, 231)">E</text><text class="cls-4" transform="translate(159.55 225.55) rotate(-26.62)">·</text><g id="mark"><polygon class="cls-2" points="216.87 317.73 228.94 296.8 204.78 254.94 180.63 254.94 216.87 317.73"/><polygon class="cls-2" points="204.79 296.8 216.86 317.73 192.72 317.73 180.63 296.8 204.79 296.8"/><polygon class="cls-2" points="168.56 275.87 192.71 275.87 168.56 317.73 156.48 296.8 168.56 275.87"/></g></g><polygon class="cls-2" points="191.25 66.68 201.34 87.12 223.9 90.4 207.58 106.31 211.43 128.79 191.25 118.18 171.07 128.79 174.92 106.31 158.6 90.4 181.16 87.12 191.25 66.68"/></g></g></svg>